Coordinates
version=1
nRows=10
nColumns=40
inDegrees=yes

Units are S.I. units (second, meters, Newtons, ...)
If the header above contains a line with 'inDegrees', this indicates whether rotational values are in degrees (yes) or radians (no).

endheader
time	pelvis_tilt	pelvis_list	pelvis_rotation	pelvis_tx	pelvis_ty	pelvis_tz	hip_flexion_r	hip_adduction_r	hip_rotation_r	knee_angle_r	knee_angle_r_beta	ankle_angle_r	subtalar_angle_r	mtp_angle_r	hip_flexion_l	hip_adduction_l	hip_rotation_l	knee_angle_l	knee_angle_l_beta	ankle_angle_l	subtalar_angle_l	mtp_angle_l	lumbar_extension	lumbar_bending	lumbar_rotation	arm_flex_r	arm_add_r	arm_rot_r	elbow_flex_r	pro_sup_r	wrist_flex_r	wrist_dev_r	arm_flex_l	arm_add_l	arm_rot_l	elbow_flex_l	pro_sup_l	wrist_flex_l	wrist_dev_l
      2.18500000	      8.44009702	      3.94144122	      1.60913270	     -0.38867586	      0.89477678	     -0.76944177	     30.32813674	      0.18022979	     -0.80524251	     66.42238612	      1.15928933	     21.98440893	      0.00000000	      0.00000000	     47.69233946	      5.79569777	      5.54567394	     14.47583463	      0.25265098	     -7.03466066	      0.00000000	      0.00000000	    -34.19361249	     -1.11158952	     -1.79726279	     89.80923707	    -13.51611872	     18.61855207	     46.58252731	     87.22224225	      0.00000000	      0.00000000	     89.85462425	     -7.49148232	     17.39939189	     45.36098183	     86.49092289	      0.00000000	      0.00000000
      2.19000000	      8.41801787	      3.92063330	      1.61230480	     -0.38891166	      0.89378570	     -0.76940088	     30.48138715	      0.21644972	     -0.79753410	     66.63289062	      1.16296333	     22.04627454	      0.00000000	      0.00000000	     47.79483379	      5.77536055	      5.57547049	     14.46848735	      0.25252274	     -7.00227627	      0.00000000	      0.00000000	    -34.24467645	     -1.08626117	     -1.83085256	     89.81196574	    -13.43818758	     18.33574212	     46.66866036	     87.17164316	      0.00000000	      0.00000000	     89.85616925	     -7.57205384	     17.38053755	     45.49486560	     86.41823445	      0.00000000	      0.00000000
      2.19500000	      8.37362102	      3.90102872	      1.62515795	     -0.38907659	      0.89275159	     -0.76939389	     30.66205101	      0.24038152	     -0.80193090	     66.86444530	      1.16700472	     22.14582761	      0.00000000	      0.00000000	     47.93884678	      5.76094691	      5.53974666	     14.48142846	      0.25274861	     -7.04808753	      0.00000000	      0.00000000	    -34.27021023	     -1.07188461	     -1.76854315	     89.81476374	    -13.48256340	     18.37448653	     46.69053541	     87.25699654	      0.00000000	      0.00000000	     89.85801804	     -7.49340849	     17.28978648	     45.53063018	     86.41911404	      0.00000000	      0.00000000
      2.20000000	      8.32537878	      3.84080679	      1.63883942	     -0.38930384	      0.89163278	     -0.76932368	     30.85173695	      0.32398658	     -0.80894746	     67.08917373	      1.17092697	     22.23586772	      0.00000000	      0.00000000	     48.11500327	      5.71500654	      5.58248744	     14.55837820	      0.25409163	     -6.99390932	      0.00000000	      0.00000000	    -34.28365425	     -1.01151984	     -1.76122752	     89.81752957	    -13.43494473	     18.12434403	     46.78395352	     87.11754371	      0.00000000	      0.00000000	     89.86031609	     -7.53981900	     17.24477798	     45.60370616	     86.33495369	      0.00000000	      0.00000000
      2.20500000	      8.29727378	      3.82674655	      1.66364692	     -0.38946689	      0.89063554	     -0.76931723	     31.00388237	      0.34390428	     -0.80775484	     67.30099133	      1.17462389	     22.34499679	      0.00000000	      0.00000000	     48.23156006	      5.71833889	      5.60496844	     14.57769554	      0.25442878	     -6.95637613	      0.00000000	      0.00000000	    -34.32576950	     -0.99732919	     -1.76597556	     89.81995616	    -13.42014974	     18.02103060	     46.85253074	     87.17737186	      0.00000000	      0.00000000	     89.86154339	     -7.49876892	     17.11340316	     45.67697258	     86.39505165	      0.00000000	      0.00000000
      2.21000000	      8.26203202	      3.78228232	      1.68870722	     -0.38964321	      0.88959388	     -0.76927809	     31.16774720	      0.40397006	     -0.80302959	     67.52596407	      1.17855040	     22.45149903	      0.00000000	      0.00000000	     48.37310485	      5.69460437	      5.64505310	     14.61453178	      0.25507170	     -6.92921062	      0.00000000	      0.00000000	    -34.35347656	     -0.94282223	     -1.77565990	     89.82368739	    -13.33769567	     17.81777256	     46.86733895	     87.42896695	      0.00000000	      0.00000000	     89.86256460	     -7.57664551	     17.18188322	     45.76930470	     85.74028460	      0.00000000	      0.00000000
      2.21500000	      8.23713517	      3.75624639	      1.72431202	     -0.38981636	      0.88855161	     -0.76926915	     31.32815814	      0.42608773	     -0.83375764	     67.76773099	      1.18277003	     22.52017770	      0.00000000	      0.00000000	     48.50813468	      5.68321265	      5.59210712	     14.63802585	      0.25548175	     -7.01831896	      0.00000000	      0.00000000	    -34.39450073	     -0.91072139	     -1.75016778	     89.82601694	    -13.35395977	     17.69346247	     46.94534924	     87.29668788	      0.00000000	      0.00000000	     89.86465710	     -7.46982971	     16.93219012	     45.77079353	     86.20007442	      0.00000000	      0.00000000
      2.22000000	      8.16522928	      3.75126313	      1.73698612	     -0.38997338	      0.88745646	     -0.76925035	     31.53927651	      0.43347160	     -0.83744070	     67.98581645	      1.18657634	     22.60238514	      0.00000000	      0.00000000	     48.68570113	      5.68400830	      5.54404769	     14.66764100	      0.25599863	     -6.99462141	      0.00000000	      0.00000000	    -34.39483382	     -0.91813742	     -1.69962697	     89.82965487	    -13.42424332	     17.80348367	     46.98460643	     87.24711144	      0.00000000	      0.00000000	     89.86646651	     -7.43350849	     16.90003671	     45.86671982	     86.35788357	      0.00000000	      0.00000000
      2.22500000	      8.14862907	      3.67854500	      1.77208704	     -0.39014449	      0.88641751	     -0.76923467	     31.67173926	      0.51675570	     -0.86301617	     68.18726489	      1.19009228	     22.74897743	      0.00000000	      0.00000000	     48.81707038	      5.64950878	      5.63183053	     14.71209259	      0.25677446	     -6.93535618	      0.00000000	      0.00000000	    -34.43355917	     -0.83156096	     -1.72219589	     89.83092438	    -13.34436675	     17.46939666	     47.07702655	     87.49868665	      0.00000000	      0.00000000	     89.86794274	     -7.51340850	     17.00634928	     45.96081900	     85.31843625	      0.00000000	      0.00000000
      2.23000000	      8.11795759	      3.63900600	      1.78852498	     -0.39030773	      0.88541019	     -0.76916243	     31.83536116	      0.55940155	     -0.89392869	     68.40652532	      1.19391910	     22.77794410	      0.00000000	      0.00000000	     48.95029257	      5.59469698	      5.49878662	     14.70126524	      0.25658548	     -7.12742555	      0.00000000	      0.00000000	    -34.46987287	     -0.79732905	     -1.67484487	     89.83362786	    -13.38442135	     17.48297125	     47.16614703	     87.11077884	      0.00000000	      0.00000000	     89.86905802	     -7.41063442	     16.67045817	     45.96567546	     86.42935158	      0.00000000	      0.00000000
